<?xml version="1.0" encoding="iso-8859-1"?>
<!-- Generator: Adobe Illustrator 19.0.0, SVG Export Plug-In . SVG Version: 6.00 Build 0)  -->
<svg version="1.1" id="Layer_1" xmlns="http://www.w3.org/2000/svg" xmlns:xlink="http://www.w3.org/1999/xlink" x="0px" y="0px"
	 viewBox="0 0 512.002 512.002" style="enable-background:new 0 0 512.002 512.002;" xml:space="preserve">
<g>
	<g>
		<g>
			<path d="M51.576,208.085c0-4.381-3.552-7.933-7.933-7.933h-4.99c-4.381,0-7.933,3.552-7.933,7.933s3.552,7.933,7.933,7.933h4.99
				C48.024,216.018,51.576,212.466,51.576,208.085z"/>
			<path d="M473.353,200.152h-4.99c-4.381,0-7.933,3.552-7.933,7.933s3.552,7.933,7.933,7.933h4.99c4.381,0,7.933-3.552,7.933-7.933
				S477.734,200.152,473.353,200.152z"/>
			<path d="M511.754,260.116c-0.899-4.906-4.157-9.045-8.714-11.071l-17.163-7.632c0.986-4.991,4.411-11.545,8.645-14.552
				c4.826-3.428,7.707-9.11,7.707-15.199v-11.836c0-5.503-3.039-10.454-7.93-12.918c-25.147-12.674-62.189-19.101-110.098-19.101
				c-2.163,0-4.408,0.039-7.03,0.122c-0.062-0.001-0.124-0.002-0.186-0.002c-37.056,0-61.703,8.346-81.508,15.052
				c-14.099,4.774-26.274,8.897-39.48,8.897c-13.207,0-25.383-4.123-39.481-8.897c-19.805-6.706-44.453-15.052-81.508-15.052
				c-0.062,0-0.124,0-0.186,0.002c-2.622-0.084-4.867-0.122-7.029-0.122c-47.909,0-84.951,6.426-110.098,19.1
				c-4.892,2.465-7.93,7.415-7.93,12.918v11.836c0,6.088,2.881,11.771,7.708,15.2c4.234,3.007,7.659,9.562,8.645,14.555
				l-17.156,7.628c-4.557,2.027-7.815,6.166-8.714,11.071c-0.899,4.905,0.679,9.929,4.219,13.44l2.986,2.961
				c4.594,4.555,10.714,6.928,16.893,6.928c2.486,0,4.981-0.389,7.389-1.171c4.822,15.46,12.898,28.225,24.218,38.121
				c18.318,16.016,44.003,23.801,78.52,23.801c42.225,0,78.895-22.505,98.09-60.202c4.27-8.386,7.359-17.067,9.184-25.811
				c4.537-13.589,9.33-20.478,14.25-20.478c4.912,0,9.699,6.87,14.231,20.42c1.825,8.766,4.917,17.466,9.196,25.87
				c19.196,37.697,55.864,60.201,98.089,60.201c34.517,0,60.202-7.785,78.521-23.801c11.32-9.897,19.397-22.662,24.219-38.123
				c2.411,0.783,4.908,1.173,7.397,1.173c6.178,0,12.299-2.374,16.894-6.928l2.985-2.96
				C511.076,270.045,512.654,265.021,511.754,260.116z M18.627,265.249l-2.184-2.166l10.648-4.734
				c0.264,2.822,0.602,5.586,1.028,8.278C25.008,268.284,21.142,267.743,18.627,265.249z M469.716,244.05
				c0,28.74-8.115,50.406-24.12,64.398c-15.3,13.377-37.569,19.88-68.078,19.88c-36.135,0-67.519-19.266-83.952-51.535
				c-3.717-7.299-6.374-14.825-7.897-22.368c-0.089-0.44-0.214-0.867-0.372-1.279c-4.522-13.553-12.477-31.31-29.296-31.31
				c-8.078,0-19.876,3.246-29.248,31.165c-0.184,0.454-0.328,0.928-0.426,1.417c-1.523,7.544-4.18,15.072-7.898,22.373
				c-16.433,32.269-47.816,51.535-83.952,51.535c-30.508,0-52.777-6.503-68.077-19.88c-16.005-13.992-24.12-35.658-24.12-64.398
				c0-9.355-5.842-23.181-15.619-30.123c-0.635-0.452-1.029-1.319-1.029-2.265v-10.982c15.979-7.854,46.544-17.006,102.162-17.006
				c2.11,0,4.324,0.041,6.968,0.129c0.237,0.007,0.473,0.004,0.708-0.008c34.181,0.067,56.368,7.581,75.957,14.214
				c14.785,5.006,28.749,9.734,44.57,9.734c15.82,0,29.785-4.728,44.569-9.734c19.587-6.632,41.78-14.146,75.956-14.214
				c0.236,0.014,0.472,0.016,0.71,0.008c2.644-0.088,4.858-0.129,6.968-0.129c55.618,0,86.181,9.153,102.162,17.006v10.981
				c0,0.945-0.395,1.813-1.029,2.264C475.558,220.87,469.716,234.696,469.716,244.05z M493.378,265.249
				c-2.517,2.497-6.388,3.036-9.499,1.375c0.426-2.692,0.764-5.456,1.028-8.278l10.655,4.738L493.378,265.249z"/>
			<path d="M387.421,191.978c-3.278,0.048-6.668,0.097-9.901,0.097c-22.552,0-63.09,3.718-81.198,28.617
				c-8.66,11.907-7.532,32.804,2.873,53.237c15.333,30.111,44.613,48.087,78.326,48.087c28.913,0,49.823-5.992,63.922-18.32
				c14.779-12.92,21.962-32.43,21.962-59.647c0-16.694-4.293-29.041-13.125-37.744C435.029,191.28,410.826,191.633,387.421,191.978z
				 M377.519,306.151c-40.932,0-59.478-30.173-64.188-39.421c-8.259-16.218-8.317-31.016-4.18-36.706
				c14.495-19.931,52.64-22.082,68.367-22.082c3.351,0,6.799-0.051,10.134-0.099c3.369-0.049,6.755-0.098,10.11-0.098
				c16.708,0,32.619,1.232,41.379,9.864c5.649,5.567,8.395,14.216,8.395,26.442C447.538,288.159,427.251,306.151,377.519,306.151z"
				/>
			<path d="M134.479,192.075c-3.235,0-6.624-0.05-9.901-0.097c-23.407-0.343-47.61-0.698-62.858,14.329
				c-8.832,8.703-13.125,21.049-13.125,37.744c0,27.216,7.184,46.727,21.962,59.647c14.1,12.327,35.01,18.32,63.923,18.32
				c33.712,0,62.993-17.976,78.326-48.087c10.405-20.433,11.533-41.33,2.873-53.238
				C197.569,195.793,157.031,192.075,134.479,192.075z M198.666,266.73c-4.709,9.248-23.255,39.42-64.187,39.42
				c-49.733,0-70.019-17.992-70.019-62.1c0-12.226,2.746-20.877,8.395-26.442c8.761-8.633,24.67-9.864,41.38-9.864
				c3.354,0,6.743,0.05,10.11,0.098c3.335,0.049,6.783,0.099,10.134,0.099c15.728,0,53.872,2.151,68.367,22.082
				C206.984,235.713,206.925,250.512,198.666,266.73z"/>
		</g>
	</g>
</g>
<g>
</g>
<g>
</g>
<g>
</g>
<g>
</g>
<g>
</g>
<g>
</g>
<g>
</g>
<g>
</g>
<g>
</g>
<g>
</g>
<g>
</g>
<g>
</g>
<g>
</g>
<g>
</g>
<g>
</g>
</svg>
