<?xml version="1.0" encoding="iso-8859-1"?>
<!-- Generator: Adobe Illustrator 19.0.0, SVG Export Plug-In . SVG Version: 6.00 Build 0)  -->
<svg version="1.1" id="Layer_1" xmlns="http://www.w3.org/2000/svg" xmlns:xlink="http://www.w3.org/1999/xlink" x="0px" y="0px"
	 viewBox="0 0 511.999 511.999" style="enable-background:new 0 0 511.999 511.999;" xml:space="preserve">
<g>
	<g>
		<path d="M504.058,214.933h-12.519c-12.957-47.846-59.715-54.094-96.221-54.094c-20.824,0-46.742,0-68.286,7.206
			c-17.361,5.807-29.255,15.456-35.602,28.799c-13.949-7.049-24.632-10.028-35.43-10.028c-10.795,0-21.479,2.979-35.43,10.028
			c-6.347-13.344-18.242-22.992-35.602-28.799c-21.544-7.206-47.461-7.206-68.286-7.206c-36.507,0-83.264,6.248-96.221,54.094H7.942
			c-4.386,0-7.942,3.555-7.942,7.942c0,4.387,3.556,7.942,7.942,7.942h9.661c-0.399,4.011-0.612,8.245-0.612,12.722
			c0,34.71,3.058,48.906,11.739,62.146L16.2,315.893c-4.184,3.409-6.02,8.79-4.791,14.045c1.228,5.256,5.261,9.265,10.522,10.465
			l13.898,3.168c2.007,0.457,4.03,0.682,6.038,0.682c6.289-0.001,12.411-2.205,17.309-6.305
			c13.055,8.773,29.658,13.211,57.507,13.211c26.431,0,52.879-10.93,72.566-29.987c3.783-3.662,7.729-8.042,11.573-13.211
			l1.076,0.443c2.589,1.064,5.306,1.597,8.024,1.597c2.754,0,5.508-0.547,8.126-1.639c5.202-2.172,9.246-6.238,11.389-11.451
			l10.203-24.821c2.142-5.213,2.128-10.949-0.043-16.15c-2.171-5.202-6.237-9.247-11.449-11.389l-3.232-1.329
			c0.695-6.303,1.084-12.978,1.084-20.07c0-3.782-0.271-7.386-0.794-10.828c12.861-6.786,22.039-9.621,30.794-9.621
			c8.758,0,17.936,2.836,30.795,9.621c-0.523,3.442-0.794,7.047-0.794,10.828c0,7.093,0.39,13.768,1.084,20.07l-3.231,1.329
			c-5.213,2.142-9.28,6.188-11.451,11.389c-2.172,5.202-2.186,10.937-0.043,16.15l10.203,24.821
			c2.142,5.213,6.188,9.28,11.389,11.451c2.619,1.092,5.372,1.639,8.126,1.639c2.717,0,5.435-0.532,8.023-1.596l1.077-0.443
			c3.844,5.169,7.791,9.549,11.573,13.211c19.688,19.057,46.137,29.987,72.566,29.987c27.848,0,44.451-4.437,57.507-13.212
			c4.898,4.101,11.018,6.305,17.309,6.305c2.007,0,4.033-0.225,6.038-0.682l13.897-3.168c5.262-1.2,9.293-5.209,10.522-10.465
			c1.228-5.255-0.607-10.636-4.79-14.044l-12.531-10.208c8.68-13.24,11.739-27.435,11.739-62.146c0-4.477-0.212-8.71-0.612-12.722
			h9.661c4.386,0,7.942-3.555,7.942-7.942C512,218.488,508.445,214.933,504.058,214.933z M39.358,328.083l-10.135-2.312l9.23-7.52
			c0.831,0.973,1.683,1.962,2.573,2.986c1.85,2.131,3.693,4.141,5.556,6.046C44.36,328.334,41.831,328.647,39.358,328.083z
			 M178.2,309.759c-16.752,16.216-39.174,25.516-61.519,25.516c-36.533,0-48.689-7.208-63.665-24.45
			c-15.875-18.279-20.141-23.191-20.141-67.284c0-47.458,24.281-66.816,83.807-66.816c49.237,0,93.433,3.552,93.433,46.427
			C210.115,259.6,199.079,289.547,178.2,309.759z M224.949,266.049l-10.203,24.82c-0.531,1.289-1.53,2.295-2.816,2.832
			c-0.729,0.304-1.498,0.417-2.264,0.379c5.192-9.592,9.687-21.084,12.643-34.732C224.824,260.514,226.012,263.461,224.949,266.049z
			 M300.07,293.702c-1.286-0.537-2.285-1.543-2.816-2.832l-10.203-24.82c-1.063-2.588,0.125-5.534,2.641-6.701
			c2.956,13.647,7.451,25.14,12.643,34.731C301.568,294.118,300.798,294.004,300.07,293.702z M395.319,335.273
			c-22.345,0-44.766-9.3-61.518-25.516c-20.88-20.211-31.916-50.16-31.916-86.608c0-42.875,44.196-46.427,93.433-46.427
			c59.526,0,83.807,19.358,83.807,66.816c0,44.094-4.267,49.005-20.141,67.284C444.006,328.066,431.851,335.273,395.319,335.273z
			 M472.643,328.083c-2.473,0.562-5,0.249-7.223-0.799c1.864-1.904,3.706-3.915,5.556-6.045c0.889-1.024,1.741-2.013,2.572-2.986
			l9.229,7.519L472.643,328.083z"/>
	</g>
</g>
<g>
</g>
<g>
</g>
<g>
</g>
<g>
</g>
<g>
</g>
<g>
</g>
<g>
</g>
<g>
</g>
<g>
</g>
<g>
</g>
<g>
</g>
<g>
</g>
<g>
</g>
<g>
</g>
<g>
</g>
</svg>
